<svg width="24" height="24" viewBox="0 0 16 16" xmlns="http://www.w3.org/2000/svg">
  <!-- Book Cover (Màu xanh dương) -->
  <path d="M7,16H1.5a.5.5,0,0,1-.5-.5V15H.5a.5.5,0,1,1,0-1H1V11H.5a.5.5,0,1,1,0-1H1V7H.5a.5.5,0,1,1,0-1H1V3.045H.5a.5.5,0,1,1,0-1H1V.5A.5.5,0,0,1,1.5,0h10A3.5,3.5,0,0,1,15,3.5V8H14V3.5A2.5,2.5,0,0,0,11.5,1H2V2.045h.545a.5.5,0,0,1,0,1H2V6h.5a.5.5,0,0,1,0,1H2v3h.5a.5.5,0,0,1,0,1H2v3h.5a.5.5,0,0,1,0,1H7v1Z"
        fill="#4a6baf" stroke="#2a4a8f" stroke-width="0.5"/>

  <!-- Book Pages (Màu trắng) -->
  <rect x="1" y="1" width="10" height="14" fill="white" opacity="0.8"/>

  <!-- Plus Sign (Màu xanh lá tươi) -->
  <path d="M15,12.5a.5.5,0,0,1-.5.5H12v2.5a.5.5,0,0,1-1,0V13H8.5a.5.5,0,0,1,0-1H11V9.5a.5.5,0,0,1,1,0V12h2.5A.5.5,0,0,1,15,12.5Z"
        fill="#2ecc71" stroke="#27ae60" stroke-width="0.3"/>

  <!-- Gáy sách (Màu xanh đậm) -->
  <rect x="0.5" y="0.5" width="1" height="15" fill="#2a4a8f"/>
</svg>