<?xml version="1.0" encoding="iso-8859-1"?>
<!-- Uploaded to: SVG Repo, www.svgrepo.com, Generator: SVG Repo Mixer Tools -->
<svg height="30px" width="30px" version="1.1" id="Layer_1" xmlns="http://www.w3.org/2000/svg" xmlns:xlink="http://www.w3.org/1999/xlink"
	 viewBox="0 0 512.035 512.035" xml:space="preserve">
<g transform="translate(1 1)">
	<path style="fill:#FFDD09;" d="M298.476,335.248l-37.547,30.72l4.267-10.24l8.533-51.2l68.267-92.16v-128l-36.693-42.667
		L276.289,7.568H34.796v494.933h307.2V268.688L298.476,335.248z"/>
	<path style="fill:#FFFFFF;" d="M9.196,502.501h25.6V7.568h-25.6V502.501z"/>
	<g>
		<path style="fill:#FD9808;" d="M341.996,502.501h25.6V268.688l-25.6,34.133V502.501z"/>
		<path style="fill:#FD9808;" d="M367.596,179.941V84.368l-42.667-42.667L290.796,7.568h-14.507l29.013,34.133l36.693,42.667v128"/>
	</g>
	<g>
		<path style="fill:#FCC309;" d="M290.796,84.368h76.8l-34.133-34.133L290.796,7.568V84.368z"/>
		<path style="fill:#FCC309;" d="M478.529,102.288l-25.6-20.48l19.627-25.6c3.413-4.267,10.24-5.12,14.507-1.707l8.533,6.827
			c4.267,3.413,5.973,10.24,2.56,14.507L478.529,102.288z"/>
	</g>
	<g>
		<path style="fill:#FFDD09;" d="M272.876,365.968l-13.653-10.24l17.067-51.2l40.96,30.72L272.876,365.968z"/>
		<path style="fill:#FFDD09;" d="M317.249,335.248l-40.96-30.72L444.396,75.835l42.667,34.133L317.249,335.248z"/>
	</g>
	<path style="fill:#FCC309;" d="M318.102,333.541l81.92-108.373l-42.667-30.72l-81.067,110.08L318.102,333.541z"/>
	<path d="M367.596,92.901h-76.8c-5.12,0-8.533-3.413-8.533-8.533v-76.8c0-3.413,1.707-6.827,5.12-7.68
		c3.413-1.707,6.827-0.853,9.387,1.707l76.8,76.8c2.56,2.56,3.413,5.973,1.707,9.387C374.422,91.195,371.009,92.901,367.596,92.901z
		 M299.329,75.835h47.787l-47.787-47.787V75.835z"/>
	<path d="M317.249,343.781c-1.707,0-3.413-0.853-5.12-1.707l-40.96-30.72c-3.413-2.56-4.267-8.533-1.707-11.947L437.569,70.715
		c1.707-1.707,3.413-3.413,5.973-3.413c2.56,0,4.267,0,6.827,1.707l42.667,34.133c3.413,2.56,4.267,8.533,1.707,11.947
		l-170.667,225.28C322.369,342.075,319.809,343.781,317.249,343.781z M288.236,302.821l27.307,20.48l159.573-211.627l-29.013-23.04
		L288.236,302.821z"/>
	<path d="M478.529,110.821c-1.707,0-3.413-0.853-5.12-1.707l-25.6-20.48c-3.413-2.56-4.267-8.533-1.707-11.947l19.627-25.6
		c5.973-8.533,17.92-10.24,26.453-3.413l9.387,6.827c8.533,5.973,10.24,17.92,4.267,26.453l-19.627,27.307
		c-1.707,1.707-3.413,3.413-5.973,3.413C479.382,110.821,478.529,110.821,478.529,110.821z M464.022,80.955l11.947,9.387
		l14.507-19.627c0.853-0.853,0.853-1.707,0-2.56l-9.387-6.827c-0.853-0.853-1.707-0.853-2.56,0L464.022,80.955z"/>
	<path d="M350.529,152.635c-1.707,0-3.413-0.853-5.12-1.707c-3.413-2.56-4.267-8.533-1.707-11.947l51.2-68.267
		c1.707-2.56,5.973-4.267,8.533-3.413l34.133,8.533c4.267,0.853,7.68,5.973,5.973,10.24c-0.853,4.267-5.973,7.68-10.24,5.973
		l-29.013-6.827l-47.787,64C355.649,151.781,353.089,152.635,350.529,152.635z"/>
	<path d="M272.876,374.501c-1.707,0-3.413-0.853-5.12-1.707l-13.653-10.24c-2.56-2.56-4.267-5.973-3.413-9.387l17.067-51.2
		c0.853-2.56,2.56-4.267,5.12-5.12c2.56-0.853,5.12,0,7.68,1.707l40.96,30.72c2.56,1.707,3.413,4.267,3.413,6.827
		s-1.707,5.12-3.413,6.827l-44.373,30.72C276.289,373.648,274.582,374.501,272.876,374.501z M269.462,352.315l3.413,2.56
		l29.867-20.48l-22.187-16.213L269.462,352.315z"/>
	<path d="M256.662,383.035c-1.707,0-3.413-0.853-5.12-1.707c-4.267-2.56-5.12-7.68-2.56-11.947l9.387-13.653
		c2.56-4.267,7.68-5.12,11.947-2.56s5.12,7.68,2.56,11.947l-9.387,13.653C261.782,382.181,259.222,383.035,256.662,383.035z"/>
	<path d="M336.876,316.475c-1.707,0-3.413-0.853-5.12-1.707l-40.107-31.573c-3.413-2.56-4.267-8.533-1.707-11.947
		s8.533-4.267,11.947-1.707l40.107,31.573c3.413,2.56,4.267,8.533,1.707,11.947C341.996,315.621,339.436,316.475,336.876,316.475z"
		/>
	<path d="M358.209,289.168c-1.707,0-3.413-0.853-5.12-1.707l-40.96-30.72c-3.413-2.56-4.267-8.533-1.707-11.947
		s8.533-4.267,11.947-1.707l40.96,30.72c3.413,2.56,4.267,8.533,1.707,11.947C363.329,287.461,360.769,289.168,358.209,289.168z"/>
	<path d="M378.689,261.008c-1.707,0-3.413-0.853-5.12-1.707l-40.96-29.867c-3.413-2.56-4.267-7.68-1.707-11.947
		c2.56-3.413,7.68-5.12,11.947-1.707l40.96,29.867c3.413,2.56,4.267,7.68,1.707,11.947
		C383.809,259.301,381.249,261.008,378.689,261.008z"/>
	<path d="M179.862,178.235h-102.4c-5.12,0-8.533-3.413-8.533-8.533c0-5.12,3.413-8.533,8.533-8.533h102.4
		c5.12,0,8.533,3.413,8.533,8.533C188.396,174.821,184.982,178.235,179.862,178.235z"/>
	<path d="M179.862,280.635h-102.4c-5.12,0-8.533-3.413-8.533-8.533s3.413-8.533,8.533-8.533h102.4c5.12,0,8.533,3.413,8.533,8.533
		S184.982,280.635,179.862,280.635z"/>
	<path d="M179.862,383.035h-102.4c-5.12,0-8.533-3.413-8.533-8.533c0-5.12,3.413-8.533,8.533-8.533h102.4
		c5.12,0,8.533,3.413,8.533,8.533C188.396,379.621,184.982,383.035,179.862,383.035z"/>
	<path d="M248.129,186.768c-2.56,0-4.267-0.853-5.973-2.56l-17.067-17.067c-3.413-3.413-3.413-8.533,0-11.947s8.533-3.413,11.947,0
		l10.24,10.24l36.693-44.373c3.413-3.413,8.533-4.267,11.947-0.853c3.413,3.413,4.267,8.533,0.853,11.947l-42.667,51.2
		C253.249,185.915,250.689,186.768,248.129,186.768L248.129,186.768z"/>
	<path d="M248.129,289.168c-2.56,0-4.267-0.853-5.973-2.56l-17.067-17.067c-3.413-3.413-3.413-8.533,0-11.947s8.533-3.413,11.947,0
		l10.24,10.24l36.693-44.373c3.413-3.413,8.533-4.267,11.947-0.853c3.413,3.413,4.267,8.533,0.853,11.947l-42.667,51.2
		C253.249,288.315,250.689,289.168,248.129,289.168L248.129,289.168z"/>
	<path d="M367.596,511.035H9.196c-5.12,0-8.533-3.413-8.533-8.533V7.568c0-5.12,3.413-8.533,8.533-8.533h281.6
		c2.56,0,4.267,0.853,5.973,2.56l76.8,76.8c1.707,1.707,2.56,3.413,2.56,5.973v95.573c0,1.707-0.853,3.413-1.707,5.12
		l-90.453,123.733l-14.507,44.373l3.413,2.56l38.4-26.453l49.493-65.707c2.56-2.56,5.973-4.267,9.387-2.56
		c3.413,0.853,5.973,4.267,5.973,7.68v233.813C376.129,507.621,372.716,511.035,367.596,511.035z M17.729,493.968h341.333V293.435
		l-34.987,46.933c-0.853,0.853-0.853,1.707-1.707,1.707l-44.373,30.72c-3.413,1.707-6.827,1.707-10.24,0l-13.653-10.24
		c-2.56-2.56-4.267-5.973-3.413-9.387l17.067-51.2c0-0.853,0.853-1.707,0.853-2.56l90.453-122.027v-89.6l-71.68-71.68H17.729
		V493.968z M317.249,335.248L317.249,335.248L317.249,335.248z"/>
	<path d="M318.102,342.075c-1.707,0-3.413-0.853-5.12-1.707l-41.813-29.013c-1.707-1.707-3.413-3.413-3.413-5.973
		c0-2.56,0-4.267,1.707-6.827l81.067-109.227c2.56-3.413,7.68-4.267,11.947-1.707l42.667,30.72c1.707,1.707,3.413,3.413,3.413,5.973
		c0,2.56,0,4.267-1.707,6.827l-81.92,107.52C323.222,341.221,320.662,342.075,318.102,342.075z M288.236,301.968l28.16,19.627
		l71.68-94.72l-29.013-20.48L288.236,301.968z"/>
</g>
</svg>