<?xml version="1.0" encoding="utf-8"?>
<!-- Uploaded to: SVG Repo, www.svgrepo.com, Generator: SVG Repo Mixer Tools -->
<svg width="30px" height="30px" viewBox="0 0 1024 1024" class="icon" version="1.1" xmlns="http://www.w3.org/2000/svg">
    <path d="M714.666667 576c-46.933333-64-110.933333-106.666667-202.666667-106.666667s-155.733333 42.666667-202.666667 106.666667h405.333334z"
          fill="#2196F3"/>
    <path d="M727.466667 917.333333H296.533333c-23.466667 0-40.533333-17.066667-42.666666-40.533333l-17.066667-277.333333c0-23.466667 19.2-44.8 42.666667-44.8h465.066666c25.6 0 44.8 21.333333 42.666667 44.8l-17.066667 277.333333c-2.133333 23.466667-19.2 40.533333-42.666666 40.533333z"
          fill="#546E7A"/>
    <path d="M725.333333 618.666667m-21.333333 0a21.333333 21.333333 0 1 0 42.666667 0 21.333333 21.333333 0 1 0-42.666667 0Z"
          fill="#B0BEC5"/>
    <path d="M512 256m-170.666667 0a170.666667 170.666667 0 1 0 341.333334 0 170.666667 170.666667 0 1 0-341.333334 0Z"
          fill="#FFB74D"/>
    <path d="M343.466667 904.533333L320 928c-12.8 12.8-34.133333 12.8-46.933333 0l-70.4-70.4c-12.8-12.8-12.8-34.133333 0-46.933333l23.466666-23.466667c27.733333-27.733333 66.133333-27.733333 93.866667 0l23.466667 23.466667c25.6 27.733333 25.6 68.266667 0 93.866666zM680.533333 810.666667l23.466667-23.466667c27.733333-27.733333 66.133333-27.733333 93.866667 0l23.466666 23.466667c12.8 12.8 12.8 34.133333 0 46.933333l-70.4 70.4c-12.8 12.8-34.133333 12.8-46.933333 0l-23.466667-23.466667c-25.6-25.6-25.6-66.133333 0-93.866666z"
          fill="#FFB74D"/>
</svg>