<?xml version="1.0" encoding="iso-8859-1"?>
<!-- Uploaded to: SVG Repo, www.svgrepo.com, Generator: SVG Repo Mixer Tools -->
<svg version="1.1" id="Layer_1" xmlns="http://www.w3.org/2000/svg" xmlns:xlink="http://www.w3.org/1999/xlink" 
	 viewBox="0 0 511.596 511.596" xml:space="preserve">
<path style="fill:#A0D468;" d="M416.127,196.083c-0.016,0-58.267,29.445-62.685,101.936c-3.638,59.844,52.428,66.636,52.428,66.636
	s56.472,0.062,60.108-59.797C470.398,232.383,416.127,196.083,416.127,196.083z"/>
<path style="fill:#8CC153;" d="M403.715,410.728c-0.219,0-0.437-0.016-0.655-0.031c-5.87-0.359-10.351-5.402-9.992-11.288
	l7.104-116.768c0.358-5.871,5.417-10.352,11.287-9.992c5.887,0.358,10.352,5.417,9.992,11.287l-7.104,116.769
	C414.004,406.372,409.305,410.728,403.715,410.728z"/>
<path style="fill:#A0D468;" d="M248.837,446.013c0.016,0.016,27.01,54.551,94.551,59.219c55.753,3.841,62.514-48.368,62.514-48.368
	s0.483-52.646-55.27-56.487C283.091,395.708,248.853,446.013,248.837,446.013z"/>
<g>
	<path style="fill:#8CC153;" d="M438.906,469.807c-0.25,0-0.499-0.016-0.749-0.031l-108.79-7.51
		c-5.871-0.406-10.305-5.496-9.898-11.366s5.496-10.305,11.366-9.898l108.79,7.51c5.87,0.406,10.305,5.495,9.898,11.366
		C449.133,465.497,444.465,469.807,438.906,469.807z"/>
	
		<rect x="350.952" y="232.923" transform="matrix(-0.7071 0.7071 -0.7071 -0.7071 924.4575 382.9196)" style="fill:#8CC153;" width="63.942" height="299.997"/>
</g>
<path style="fill:#4FC2E9;" d="M181.202,351.742L181.202,351.742L181.202,351.742c-45.559,0-88.384-17.736-120.594-49.945
	C28.4,269.573,10.663,226.746,10.663,181.204c0-45.559,17.736-88.385,49.945-120.594c32.21-32.209,75.035-49.945,120.594-49.945l0,0
	c45.542,0,88.368,17.736,120.577,49.945c32.225,32.209,49.961,75.035,49.961,120.594c0,45.558-17.736,88.384-49.961,120.593
	C269.586,334.006,226.744,351.742,181.202,351.742z"/>
<path style="fill:#8CC153;" d="M181.202,0.002C81.124,0.002,0,81.126,0,181.204c0,100.077,81.124,181.187,181.202,181.187
	c100.062,0.016,181.187-81.125,181.187-181.187C362.389,81.126,281.264,0.002,181.202,0.002z M294.254,294.256
	c-14.691,14.691-31.787,26.214-50.835,34.271c-19.688,8.337-40.624,12.553-62.217,12.553s-42.529-4.216-62.232-12.553
	c-19.032-8.057-36.129-19.579-50.82-34.271s-26.229-31.787-34.27-50.835c-8.338-19.688-12.568-40.624-12.568-62.217
	s4.23-42.529,12.568-62.232c8.04-19.032,19.578-36.129,34.27-50.82s31.788-26.229,50.82-34.27
	c19.703-8.338,40.64-12.553,62.232-12.553s42.529,4.215,62.217,12.553c19.048,8.04,36.144,19.578,50.835,34.27
	s26.214,31.788,34.27,50.82c8.322,19.703,12.553,40.64,12.553,62.232s-4.23,42.529-12.553,62.217
	C320.468,262.469,308.946,279.565,294.254,294.256z"/>
<path style="fill:#3BAFDA;" d="M191.85,53.304c0-5.511-4.152-10.023-9.508-10.601v-0.062c-0.312,0-0.609,0.016-0.921,0.016
	c-0.078,0-0.141-0.016-0.219-0.016c-0.141,0-0.266,0.016-0.391,0.016C106.666,43.452,46.495,102.5,43.872,176.208
	c-0.781,1.499-1.233,3.185-1.233,4.996c0,5.886,4.777,10.663,10.663,10.663s10.648-4.777,10.648-10.663h1.14l0,0
	c0-31.319,12.209-60.766,34.348-82.904c22.139-22.154,51.585-34.348,82.904-34.348V63.89C187.697,63.327,191.85,58.8,191.85,53.304z
	"/>
</svg>