<?xml version="1.0" encoding="iso-8859-1"?>
<!-- Uploaded to: SVG Repo, www.svgrepo.com, Generator: SVG Repo Mixer Tools -->
<svg width="30px" height="30px" version="1.1" id="Layer_1" xmlns="http://www.w3.org/2000/svg" xmlns:xlink="http://www.w3.org/1999/xlink"
	 viewBox="0 0 512 512" xml:space="preserve">
<path style="fill:#9B735A;" d="M354.338,42.221H80.701c-14.168,0-25.653,11.485-25.653,25.653v359.148
	c0,14.168,11.485,25.653,25.653,25.653h273.637c14.168,0,25.653-11.485,25.653-25.653V67.875
	C379.992,53.707,368.506,42.221,354.338,42.221z"/>
<rect x="89.253" y="76.426" style="fill:#F1F4FB;" width="256.534" height="342.046"/>
<path style="fill:#E4EAF8;" d="M345.787,409.921v-99.519c-49.005,11.598-85.512,55.522-85.512,108.07h76.96
	C341.958,418.472,345.787,414.643,345.787,409.921z"/>
<path style="fill:#FFF082;" d="M268.827,25.119h-21.846c-5.925-10.181-16.833-17.102-29.461-17.102s-23.536,6.921-29.461,17.102
	h-21.846c-9.446,0-17.102,7.656-17.102,17.102v34.205h136.818V42.221C285.929,32.775,278.273,25.119,268.827,25.119z"/>
<circle style="fill:#FFFFFF;" cx="371.441" cy="418.472" r="85.511"/>
<g>
	<circle style="fill:#FFDC64;" cx="157.662" cy="161.937" r="17.102"/>
	<circle style="fill:#FFDC64;" cx="157.662" cy="332.96" r="17.102"/>
	<circle style="fill:#FFDC64;" cx="157.662" cy="247.449" r="17.102"/>
</g>
<path style="fill:#E4EAF8;" d="M385.805,451.626c-23.852-4.434-43.104-23.696-47.524-47.551c-1.475-7.959-1.341-15.679,0.107-22.925
	c1.068-5.341-5.181-9.003-9.054-5.175c-12.837,12.696-19.962,31.145-17.138,51.188c3.643,25.855,24.696,46.908,50.551,50.551
	c20.043,2.824,38.493-4.3,51.189-17.139c3.83-3.873,0.168-10.121-5.172-9.054C401.507,452.976,393.775,453.107,385.805,451.626z"/>
<path d="M251.724,444.66H80.701c-9.725,0-17.637-7.912-17.637-17.637V67.875c0-9.725,7.912-17.637,17.637-17.637h60.394v26.188
	c0,4.427,3.589,8.017,8.017,8.017H285.93c4.427,0,8.017-3.589,8.017-8.017V50.238h60.391c9.725,0,17.637,7.912,17.637,17.637
	v230.881c0,4.427,3.589,8.017,8.017,8.017c4.427,0,8.017-3.589,8.017-8.017V67.875c0-18.566-15.105-33.67-33.67-33.67h-61.71
	c-3.354-9.93-12.752-17.102-23.8-17.102h-17.547C243.359,6.451,230.813,0,217.521,0c-13.292,0-25.839,6.451-33.76,17.102h-17.547
	c-11.048,0-20.446,7.172-23.8,17.102H80.701c-18.566,0-33.67,15.105-33.67,33.67v359.148c0,18.566,15.105,33.67,33.67,33.67h171.023
	c4.427,0,8.017-3.589,8.017-8.017C259.741,448.249,256.152,444.66,251.724,444.66z M166.214,33.136h21.846
	c2.854,0,5.493-1.517,6.929-3.985c4.781-8.213,13.204-13.117,22.532-13.117c9.328,0,17.751,4.904,22.532,13.117
	c1.436,2.467,4.075,3.985,6.929,3.985h21.846c4.999,0,9.067,4.059,9.085,9.055c0,0.011-0.001,0.02-0.001,0.031
	c0,0.021,0.003,0.041,0.003,0.062v26.126H157.129V42.252c0-0.011,0.001-0.02,0.001-0.031c0-0.005-0.001-0.011-0.001-0.015
	C157.138,37.203,161.209,33.136,166.214,33.136z"/>
<path d="M114.909,84.443c4.427,0,8.017-3.589,8.017-8.017s-3.589-8.017-8.017-8.017H89.253c-4.427,0-8.017,3.589-8.017,8.017
	v342.046c0,4.427,3.589,8.017,8.017,8.017h162.47c4.427,0,8.017-3.589,8.017-8.017c0-4.427-3.589-8.017-8.017-8.017H97.269V84.443
	H114.909z"/>
<path d="M345.787,306.77c4.427,0,8.017-3.589,8.017-8.017V76.426c0-4.427-3.589-8.017-8.017-8.017h-25.653
	c-4.427,0-8.017,3.589-8.017,8.017s3.589,8.017,8.017,8.017h17.637v214.311C337.77,303.181,341.36,306.77,345.787,306.77z"/>
<path d="M294.48,171.023h-85.511c-4.427,0-8.017,3.589-8.017,8.017s3.589,8.017,8.017,8.017h85.511c4.427,0,8.017-3.589,8.017-8.017
	S298.908,171.023,294.48,171.023z"/>
<path d="M208.969,152.852h59.858c4.427,0,8.017-3.589,8.017-8.017c0-4.427-3.589-8.017-8.017-8.017h-59.858
	c-4.427,0-8.017,3.589-8.017,8.017C200.952,149.262,204.541,152.852,208.969,152.852z"/>
<path d="M379.457,415.152v-53.687c0-4.427-3.589-8.017-8.017-8.017c-4.427,0-8.017,3.589-8.017,8.017v57.007
	c0,2.126,0.844,4.165,2.348,5.668l35.629,35.629c1.565,1.565,3.617,2.348,5.668,2.348s4.103-0.782,5.668-2.348
	c3.131-3.131,3.131-8.207,0-11.337L379.457,415.152z"/>
<path d="M371.441,324.944c-51.572,0-93.528,41.956-93.528,93.528S319.869,512,371.441,512s93.528-41.956,93.528-93.528
	S423.012,324.944,371.441,324.944z M371.441,495.967c-42.731,0-77.495-34.764-77.495-77.495s34.764-77.495,77.495-77.495
	s77.495,34.764,77.495,77.495S414.172,495.967,371.441,495.967z"/>
<path d="M176.49,163.55c-3.831-2.217-8.736-0.909-10.954,2.924c-1.624,2.806-4.64,4.548-7.875,4.548
	c-5.01,0-9.086-4.076-9.086-9.086s4.076-9.086,9.086-9.086c4.427,0,8.017-3.589,8.017-8.017c0-4.427-3.589-8.017-8.017-8.017
	c-13.851,0-25.119,11.268-25.119,25.119c0,13.851,11.268,25.119,25.119,25.119c8.938,0,17.273-4.81,21.753-12.553
	C181.632,170.671,180.322,165.767,176.49,163.55z"/>
<path d="M208.969,272.568h85.511c4.427,0,8.017-3.589,8.017-8.017c0-4.427-3.589-8.017-8.017-8.017h-85.511
	c-4.427,0-8.017,3.589-8.017,8.017C200.952,268.979,204.541,272.568,208.969,272.568z"/>
<path d="M208.969,238.363h59.858c4.427,0,8.017-3.589,8.017-8.017s-3.589-8.017-8.017-8.017h-59.858
	c-4.427,0-8.017,3.589-8.017,8.017S204.541,238.363,208.969,238.363z"/>
<path d="M157.662,238.363c4.427,0,8.017-3.589,8.017-8.017s-3.589-8.017-8.017-8.017c-13.851,0-25.119,11.268-25.119,25.119
	c0,13.851,11.268,25.119,25.119,25.119c8.938,0,17.273-4.81,21.753-12.553c2.217-3.832,0.909-8.736-2.925-10.954
	c-3.831-2.218-8.736-0.91-10.954,2.924c-1.624,2.806-4.64,4.548-7.875,4.548c-5.01,0-9.086-4.076-9.086-9.086
	S152.652,238.363,157.662,238.363z"/>
<path d="M268.827,342.046h-59.858c-4.427,0-8.017,3.589-8.017,8.017c0,4.427,3.589,8.017,8.017,8.017h59.858
	c4.427,0,8.017-3.589,8.017-8.017C276.843,345.635,273.254,342.046,268.827,342.046z"/>
<path d="M268.827,307.841h-59.858c-4.427,0-8.017,3.589-8.017,8.017c0,4.427,3.589,8.017,8.017,8.017h59.858
	c4.427,0,8.017-3.589,8.017-8.017C276.843,311.431,273.254,307.841,268.827,307.841z"/>
<path d="M157.662,358.079c8.938,0,17.273-4.81,21.753-12.553c2.217-3.832,0.909-8.736-2.925-10.954
	c-3.831-2.219-8.736-0.909-10.954,2.924c-1.624,2.806-4.64,4.548-7.875,4.548c-5.01,0-9.086-4.076-9.086-9.086
	s4.076-9.086,9.086-9.086c4.427,0,8.017-3.589,8.017-8.017c0-4.427-3.589-8.017-8.017-8.017c-13.851,0-25.119,11.268-25.119,25.119
	C132.543,346.81,143.811,358.079,157.662,358.079z"/>
<path d="M217.607,50.238c4.427,0,8.017-3.589,8.017-8.017s-3.589-8.017-8.017-8.017h-0.086c-4.427,0-7.974,3.589-7.974,8.017
	S213.179,50.238,217.607,50.238z"/>
</svg>